<svg xmlns="http://www.w3.org/2000/svg" viewBox="0 0 30 30"><defs><style>.cls-1{fill:#fff}</style></defs><g id="footer"><path class="cls-1" d="M15 6.8c2.67 0 3 0 4 .06a5.61 5.61 0 011.86.34 3.33 3.33 0 011.9 1.9 5.61 5.61 0 01.38 1.9c.05 1 .06 1.37.06 4s0 3-.06 4a5.61 5.61 0 01-.34 1.86 3.33 3.33 0 01-1.9 1.9 5.61 5.61 0 01-1.86.34c-1.05.05-1.37.06-4 .06s-3 0-4-.06a5.61 5.61 0 01-1.94-.3 3.33 3.33 0 01-1.9-1.9 5.61 5.61 0 01-.34-1.9c-.05-1-.06-1.33-.06-4s0-3 .06-4a5.61 5.61 0 01.34-1.9 3.33 3.33 0 011.9-1.9 5.61 5.61 0 011.9-.34c1-.05 1.37-.06 4-.06M15 5c-2.72 0-3.06 0-4.12.06a7.59 7.59 0 00-2.43.46 5.19 5.19 0 00-2.93 2.93 7.59 7.59 0 00-.46 2.43C5 11.94 5 12.28 5 15s0 3.06.06 4.12a7.59 7.59 0 00.46 2.43 5.19 5.19 0 002.93 2.93 7.59 7.59 0 002.43.46c1.06 0 1.4.06 4.12.06s3.06 0 4.12-.06a7.59 7.59 0 002.43-.46 5.19 5.19 0 002.93-2.93 7.59 7.59 0 00.46-2.43c0-1.06.06-1.4.06-4.12s0-3.06-.06-4.12a7.59 7.59 0 00-.46-2.43 5.19 5.19 0 00-2.93-2.93 7.59 7.59 0 00-2.43-.46C18.06 5 17.72 5 15 5z"/><path class="cls-1" d="M15 9.86A5.14 5.14 0 1020.14 15 5.14 5.14 0 0015 9.86zm0 8.47A3.33 3.33 0 1118.33 15 3.33 3.33 0 0115 18.33z"/><circle class="cls-1" cx="20.34" cy="9.66" r="1.2"/></g></svg>