<svg id="logo" xmlns="http://www.w3.org/2000/svg" viewBox="0 0 140 38"><defs><style>.cls-1{fill:#ff354e}</style></defs><circle class="cls-1" cx="8.5" cy="8.5" r="8.5"/><circle class="cls-1" cx="131.5" cy="29.5" r="8.5"/><path d="M108.24 11.06a1.59 1.59 0 00-.58-.4 1.73 1.73 0 00-.71-.14 1.66 1.66 0 00-1.27.54 1.88 1.88 0 00-.49 1.34v3.39a6.52 6.52 0 00-5.57-.22 6.61 6.61 0 00-3.56 3.54 6.44 6.44 0 00-.51 2.54 6.29 6.29 0 00.52 2.55 6.5 6.5 0 003.55 3.56 6.5 6.5 0 005.07 0 6.76 6.76 0 002.11-1.4 7 7 0 001.46-2.1 6.36 6.36 0 00.54-2.51V12.4a1.85 1.85 0 00-.15-.74 1.78 1.78 0 00-.41-.6zm-3.3 11.74a3.16 3.16 0 01-.66 1 2.74 2.74 0 01-1 .64 3 3 0 01-1.16.23 3 3 0 01-1.12-.27 2.74 2.74 0 01-1-.64 3.13 3.13 0 01-.65-1 3 3 0 010-2.3 3.13 3.13 0 01.65-1 3 3 0 012.12-.87 3 3 0 011.16.23 3 3 0 011 .64 3.16 3.16 0 01.66 1 2.88 2.88 0 010 2.3zM77.85 15h-.11A7 7 0 0073 17a7.1 7.1 0 00-1.5 2.16 6.75 6.75 0 00-.59 2.58v4.55A1.65 1.65 0 0071 27a1.81 1.81 0 00.41.57 1.77 1.77 0 00.58.38 1.91 1.91 0 00.71.14 1.73 1.73 0 001.3-.56 1.64 1.64 0 00.38-.55 1.87 1.87 0 00.13-.71v-4.4a3.39 3.39 0 01.27-1.26 3.68 3.68 0 01.72-1.06 3.59 3.59 0 011-.72 3.21 3.21 0 011.24-.27h.09a2 2 0 00.72-.13 2 2 0 00.61-.38 1.86 1.86 0 000-2.58 1.86 1.86 0 00-1.31-.47zm13.84 1.88a6.73 6.73 0 00-2.11-1.41 6.56 6.56 0 00-2.53-.5 6.45 6.45 0 00-2.55.51 6.67 6.67 0 00-2.12 1.43A6.58 6.58 0 0080.94 19a6.37 6.37 0 00-.52 2.56 6.28 6.28 0 00.52 2.54 6.43 6.43 0 001.44 2.12 6.67 6.67 0 002.12 1.43 6.44 6.44 0 002.55.5 6.61 6.61 0 003.26-.85 1.69 1.69 0 001.52.85 1.78 1.78 0 00.72-.14 1.81 1.81 0 00.59-.4 1.73 1.73 0 00.53-1.3v-4.82a6.34 6.34 0 00-.55-2.49 6.7 6.7 0 00-1.43-2.12zm-1.86 5.87a3 3 0 01-.65 1 3 3 0 01-1 .64 3.13 3.13 0 01-1.17.23 3 3 0 01-1.15-.23 3.07 3.07 0 01-1.62-1.6 3 3 0 01-.23-1.15 3 3 0 01.23-1.15 3.21 3.21 0 01.66-1 3 3 0 011-.63 2.85 2.85 0 011.15-.23 2.94 2.94 0 011.17.23 2.86 2.86 0 011 .63 3 3 0 01.65 1 3 3 0 01.23 1.15 3 3 0 01-.27 1.11zm31.99-5.87a6.73 6.73 0 00-2.11-1.41 6.6 6.6 0 00-2.53-.5 6.45 6.45 0 00-2.55.51 6.67 6.67 0 00-2.12 1.43 6.58 6.58 0 00-1.44 2.09 6.37 6.37 0 00-.52 2.56 6.28 6.28 0 00.52 2.54 6.43 6.43 0 001.44 2.12 6.67 6.67 0 002.12 1.43 6.44 6.44 0 002.55.5 6.61 6.61 0 003.26-.85 1.73 1.73 0 00.63.63 1.7 1.7 0 00.89.22 1.78 1.78 0 00.72-.14 1.81 1.81 0 00.59-.4 1.73 1.73 0 00.53-1.3v-4.82a6.52 6.52 0 00-.55-2.52 6.7 6.7 0 00-1.43-2.09zM120 22.75a3 3 0 01-1.62 1.6 3.08 3.08 0 01-1.16.23 3 3 0 01-2.11-.87 3.16 3.16 0 01-.66-1 3 3 0 01-.23-1.15 3 3 0 01.23-1.15 3.21 3.21 0 01.66-1 3 3 0 012.11-.86 2.89 2.89 0 011.16.23 2.81 2.81 0 011 .63 3 3 0 01.65 1 3 3 0 01.23 1.15 3 3 0 01-.26 1.19zm14-7.28a1.87 1.87 0 00-1.38-.5h-.11a7 7 0 00-2.6.56 6.9 6.9 0 00-2.2 1.47 7.1 7.1 0 00-1.5 2.16 6.75 6.75 0 00-.59 2.58v4.55a1.65 1.65 0 00.15.69 1.78 1.78 0 00.4.57 1.81 1.81 0 00.59.38 1.86 1.86 0 00.7.14 1.71 1.71 0 001.25-.52 1.51 1.51 0 00.38-.55 1.87 1.87 0 00.14-.71v-4.4a3.39 3.39 0 01.27-1.26 3.32 3.32 0 01.72-1.06 3.54 3.54 0 011-.72 3.3 3.3 0 011.25-.27h.08a2 2 0 00.73-.13 1.86 1.86 0 00.6-.38 1.85 1.85 0 00.05-2.58zM21.22 27.48a2.14 2.14 0 00.39-.6 2 2 0 00.14-.71 1.44 1.44 0 00-.49-1.11l-4.07-3.71 3.3-3a2 2 0 00.42-.58 1.63 1.63 0 00.14-.68 1.66 1.66 0 00-.15-.7 2.21 2.21 0 00-.41-.6 2 2 0 00-.59-.39 1.86 1.86 0 00-.7-.14 1.72 1.72 0 00-1.18.47l-4 3.63v-7.23a1.79 1.79 0 00-.5-1.25 1.76 1.76 0 00-1.28-.51 1.82 1.82 0 00-.7.13 1.88 1.88 0 00-.58.38 1.68 1.68 0 00-.55 1.25v14.22a1.56 1.56 0 00.15.67 1.78 1.78 0 00.4.57 1.72 1.72 0 00.58.38 1.82 1.82 0 00.7.14 1.69 1.69 0 001.25-.52 1.64 1.64 0 00.38-.55 1.8 1.8 0 00.13-.69v-3l4.59 4.19a1.92 1.92 0 001.33.54 1.67 1.67 0 001.3-.6zm2.9 4.77a1.62 1.62 0 00.59.4 1.8 1.8 0 002-.4 1.92 1.92 0 00.49-1.34v-3.38a6.63 6.63 0 003 .73 6.36 6.36 0 002.55-.52 6.7 6.7 0 003.56-3.54 6.55 6.55 0 000-5.09A6.75 6.75 0 0034.87 17a6.61 6.61 0 00-7.19-1.43A6.66 6.66 0 0025.56 17a6.53 6.53 0 00-1.45 2.1 6.15 6.15 0 00-.55 2.5v9.36a1.85 1.85 0 00.15.74 1.94 1.94 0 00.41.55zm3.31-11.74a3.16 3.16 0 01.66-1 3 3 0 01.95-.64 3.08 3.08 0 011.16-.23 3 3 0 011.16.23 2.89 2.89 0 011 .64 3 3 0 01.65 1 3 3 0 010 2.3 3 3 0 01-.65 1 2.89 2.89 0 01-1 .64 3 3 0 01-1.16.23 3.08 3.08 0 01-1.2-.27 3 3 0 01-.95-.64 3.16 3.16 0 01-.66-1 2.88 2.88 0 010-2.3zm26.91 11.74a1.71 1.71 0 00.59.4 1.8 1.8 0 002-.4 1.88 1.88 0 00.49-1.34v-3.38a6.64 6.64 0 003 .73 6.34 6.34 0 002.58-.52 6.74 6.74 0 002.13-1.42 6.67 6.67 0 001.43-2.12 6.44 6.44 0 00.44-2.54 6.32 6.32 0 00-.52-2.55A6.89 6.89 0 0065.1 17a6.74 6.74 0 00-2.1-1.45 6.51 6.51 0 00-2.57-.55 6.69 6.69 0 00-6.1 4 6.31 6.31 0 00-.54 2.5v9.36a1.85 1.85 0 00.15.74 1.91 1.91 0 00.4.65zm3.31-11.74a3.16 3.16 0 01.66-1 3 3 0 01.95-.64 3.07 3.07 0 012.33 0 3 3 0 01.95.64 3.16 3.16 0 01.66 1 3 3 0 010 2.3 3.16 3.16 0 01-.66 1 3 3 0 01-.95.64 3.07 3.07 0 01-2.33 0 3 3 0 01-.95-.64 3.16 3.16 0 01-.66-1 2.88 2.88 0 010-2.3zm-9.84 7.23a6.74 6.74 0 002.13-1.42 6.67 6.67 0 001.43-2.12 6.44 6.44 0 00.51-2.54 6.32 6.32 0 00-.52-2.55 6.5 6.5 0 00-3.55-3.56 6.52 6.52 0 00-2.55-.55 6.62 6.62 0 00-2.55.5 6.82 6.82 0 00-2.13 1.5 6.75 6.75 0 00-1.43 2.14 6.51 6.51 0 000 5.1 6.62 6.62 0 001.43 2.11 6.82 6.82 0 002.13 1.43 6.45 6.45 0 002.55.51 6.36 6.36 0 002.55-.55zm-4.66-4a3.16 3.16 0 01-.66-1 2.88 2.88 0 010-2.3 3.16 3.16 0 01.66-1 2.89 2.89 0 011-.64 3 3 0 011.15-.23 3.08 3.08 0 011.16.23 2.93 2.93 0 011 .64 3.13 3.13 0 01.65 1 3 3 0 010 2.3 3.13 3.13 0 01-.65 1 2.93 2.93 0 01-1 .64 3.08 3.08 0 01-1.16.23 3 3 0 01-1.15-.23 2.89 2.89 0 01-1-.61z"/></svg>